<svg width="116" height="71" viewBox="0 0 116 71" fill="none" xmlns="http://www.w3.org/2000/svg">
<path d="M47.3227 0.257324C41.2529 1.61446 35.711 6.6849 31.6205 14.6581C29.3773 19.0311 27.4169 24.3278 23.4772 36.5609C19.0663 50.2643 17.7091 53.7137 15.0324 58.049C12.2991 62.4597 9.09459 65.3625 5.19261 66.9458C3.8354 67.4924 1.59223 68.0014 0.517774 68.0014C-0.368183 68.0014 -0.160831 68.1899 1.47913 68.8307C6.13512 70.6591 12.2426 70.9607 16.9739 69.6035C20.8948 68.4726 24.5329 66.2107 27.9824 62.7424C30.7534 59.9716 31.9598 58.3129 34.9004 53.1859C39.3491 45.4766 42.0069 42.8377 45.5885 42.5738L46.9268 42.4607L45.9655 41.8575C44.3632 40.8208 43.5527 40.6135 41.2718 40.5946C39.5753 40.5758 38.9721 40.6512 37.9353 41.0093C35.8995 41.7256 33.7129 43.4409 31.9033 45.7593L31.3943 46.419L31.6017 45.7782C32.0164 44.5153 34.7685 39.2186 35.9183 37.4657C37.4264 35.1472 39.4622 33.168 41.121 32.3387C43.5904 31.1323 46.1163 31.6413 48.284 33.8089C50.056 35.5619 51.9598 38.9924 55.6921 47.0788C59.0663 54.3734 61.2529 57.7474 64.9287 61.3287C68.8307 65.174 72.9966 66.8516 78.0296 66.6254C80.8194 66.4934 82.2143 66.1541 84.6271 64.9855C88.9061 62.8932 93.1097 58.7653 96.1257 53.6571C98.3689 49.8684 100.103 45.3446 103.195 35.2226C105.683 27.0609 106.719 24.2335 108.755 20.2186C110.49 16.7504 112.299 13.9607 114.278 11.6988C115.032 10.8506 115.522 10.1343 115.372 10.1343C114.26 10.1343 110.471 11.793 108.378 13.2067C102.12 17.429 99.5187 21.3684 92.7892 36.8059C88.9438 45.6462 86.9268 49.2464 84.5329 51.6214C81.8184 54.3168 78.2746 55.2405 74.9758 54.1472C73.2039 53.544 71.7713 52.5827 70.2068 50.9051C67.6431 48.2097 65.6827 44.9676 61.9692 37.2772C56.8043 26.6085 55.6544 24.6293 53.2605 22.1978C49.7166 18.6165 45.5696 17.6928 41.6111 19.5778C40.9702 19.8793 40.0088 20.4637 39.4999 20.8784C38.9721 21.293 38.5385 21.5758 38.5385 21.5192C38.5385 21.4438 38.9344 20.7087 39.4056 19.8605C44.6083 10.7563 51.6017 8.72062 57.5018 14.5639C58.3312 15.3932 59.5376 16.8823 60.1785 17.8625C61.4603 19.8228 64.2313 25.176 66.5498 30.2087C69.9617 37.6164 71.6394 40.4438 73.8071 42.4418C77.6714 46.0232 81.6299 46.0043 85.1738 42.3853C87.0588 40.4815 88.1898 38.7286 89.679 35.4488C90.3387 33.9974 92.0729 29.4924 92.0729 29.2286C92.0729 29.172 91.6205 29.5301 91.0927 30.0579C88.2463 32.7157 85.2115 34.0539 82.8363 33.677C79.481 33.1492 77.0871 30.0202 72.3557 20.0301C69.1134 13.1879 67.0965 9.73848 64.6648 6.89224C62.0823 3.87637 58.7836 1.59562 55.4094 0.52121C53.6563 -0.0442657 49.3019 -0.176208 47.3227 0.257324Z" fill="#5E077E"/>
</svg>
